<svg xmlns="http://www.w3.org/2000/svg" xmlns:xlink="http://www.w3.org/1999/xlink" width="100" zoomAndPan="magnify" viewBox="0 0 75 74.999997" height="100" preserveAspectRatio="xMidYMid meet" version="1.2"><defs><clipPath id="0f9644c5ad"><path d="M 7.5 4.613281 L 65.855469 4.613281 L 65.855469 72.109375 L 7.5 72.109375 Z M 7.5 4.613281 "/></clipPath><clipPath id="a0ecb17152"><path d="M 11.25 4.613281 L 61.945312 4.613281 C 64.015625 4.613281 65.695312 6.292969 65.695312 8.363281 L 65.695312 68.359375 C 65.695312 70.429688 64.015625 72.109375 61.945312 72.109375 L 11.25 72.109375 C 9.179688 72.109375 7.5 70.429688 7.5 68.359375 L 7.5 8.363281 C 7.5 6.292969 9.179688 4.613281 11.25 4.613281 Z M 11.25 4.613281 "/></clipPath><clipPath id="35efeb4fb3"><path d="M 14 17.554688 L 58.699219 17.554688 L 58.699219 57.304688 L 14 57.304688 Z M 14 17.554688 "/></clipPath></defs><g id="b7a0136a99"><g clip-rule="nonzero" clip-path="url(#0f9644c5ad)"><g clip-rule="nonzero" clip-path="url(#a0ecb17152)"><path style="fill:none;stroke-width:2;stroke-linecap:butt;stroke-linejoin:miter;stroke:#2baab7;stroke-opacity:1;stroke-miterlimit:4;" d="M 4.999999 -0.0024637 L 72.593755 -0.0024637 C 75.354172 -0.0024637 77.593755 2.23712 77.593755 4.997537 L 77.593755 84.992335 C 77.593755 87.752752 75.354172 89.992335 72.593755 89.992335 L 4.999999 89.992335 C 2.239582 89.992335 -0.00000118333 87.752752 -0.00000118333 84.992335 L -0.00000118333 4.997537 C -0.00000118333 2.23712 2.239582 -0.0024637 4.999999 -0.0024637 Z M 4.999999 -0.0024637 " transform="matrix(0.75,0,0,0.75,7.500001,4.615129)"/></g></g><g clip-rule="nonzero" clip-path="url(#35efeb4fb3)"><path style=" stroke:none;fill-rule:evenodd;fill:#2baab7;fill-opacity:1;" d="M 22.394531 17.675781 C 20.886719 17.761719 19.675781 18.144531 18.597656 18.878906 C 15.46875 21.011719 13.707031 26.0625 14.464844 30.738281 C 14.824219 32.964844 15.753906 35.125 17.3125 37.355469 C 17.355469 37.414062 17.417969 37.503906 17.453125 37.554688 C 17.917969 38.222656 18.457031 38.929688 19.730469 40.539062 C 20.617188 41.65625 21.109375 42.300781 21.679688 43.085938 C 22.601562 44.351562 23.4375 45.660156 24.023438 46.757812 C 24.058594 46.816406 24.105469 46.910156 24.132812 46.960938 C 25.644531 49.75 26.179688 52.382812 25.59375 54.164062 C 25.085938 55.707031 23.53125 57.011719 22.199219 57.011719 C 21.902344 57.011719 21.796875 57.085938 21.917969 57.210938 L 21.960938 57.253906 L 22.253906 57.246094 C 22.898438 57.230469 23.523438 56.988281 24.164062 56.503906 C 26.015625 55.101562 26.519531 52.960938 25.679688 50.054688 C 25.097656 48.039062 23.90625 45.78125 22.054688 43.191406 C 21.402344 42.277344 20.851562 41.558594 19.617188 40.003906 C 16.578125 36.179688 15.4375 34.128906 14.835938 31.40625 C 13.796875 26.683594 15.496094 21.296875 18.71875 19.089844 C 20.148438 18.109375 21.964844 17.734375 24.222656 17.957031 C 27.878906 18.3125 30.246094 19.976562 31.21875 22.882812 C 31.511719 23.765625 31.621094 24.796875 31.511719 25.640625 C 31.464844 25.972656 31.464844 25.972656 31.414062 25.914062 C 31.253906 25.734375 30.046875 24.613281 29.765625 24.382812 C 29.007812 23.761719 28.144531 23.492188 27.652344 23.722656 C 27.125 23.96875 26.871094 24.546875 27.035156 25.109375 C 27.253906 25.855469 28.105469 26.722656 30.558594 28.703125 L 30.609375 28.742188 L 30.53125 28.953125 C 29.824219 30.839844 29.566406 31.953125 29.605469 33.003906 C 29.695312 35.589844 31.3125 37.371094 34.195312 38.066406 C 34.746094 38.199219 35.445312 38.289062 35.542969 38.238281 C 35.703125 38.15625 35.640625 37.972656 35.472656 38.035156 C 35.390625 38.0625 34.699219 37.941406 34.140625 37.800781 C 31.863281 37.222656 30.464844 35.976562 29.992188 34.105469 C 29.664062 32.8125 29.84375 31.527344 30.644531 29.355469 C 30.710938 29.171875 30.773438 28.996094 30.785156 28.964844 L 30.808594 28.90625 L 30.878906 28.964844 C 30.921875 29 31.421875 29.410156 32 29.882812 C 33.632812 31.214844 33.816406 31.367188 34.421875 31.886719 C 34.753906 32.171875 35.179688 32.546875 35.515625 32.84375 C 35.65625 32.96875 35.867188 33.15625 35.988281 33.261719 C 36.109375 33.371094 36.210938 33.464844 36.210938 33.472656 C 36.210938 33.480469 36.238281 33.515625 36.273438 33.546875 L 36.339844 33.601562 L 36.308594 41.113281 C 36.292969 45.242188 36.28125 48.871094 36.28125 49.171875 L 36.28125 49.71875 L 36.15625 49.757812 C 33.914062 50.46875 32.945312 51.550781 33.644531 52.578125 C 35.328125 55.058594 46.289062 56.074219 53.035156 54.371094 C 57.019531 53.367188 57.960938 51.609375 55.226562 50.265625 C 54.726562 50.019531 53.925781 49.71875 53.535156 49.632812 C 53.414062 49.605469 53.3125 49.578125 53.3125 49.574219 C 53.300781 49.566406 53.253906 48.003906 53.257812 47.917969 L 53.261719 47.859375 L 53.828125 48.335938 C 54.144531 48.601562 54.753906 49.117188 55.191406 49.484375 C 57.324219 51.28125 58.238281 52.050781 58.300781 52.113281 C 58.46875 52.269531 58.59375 52.296875 58.644531 52.1875 C 58.679688 52.109375 58.65625 52.058594 58.542969 51.964844 C 58.421875 51.867188 57.886719 51.359375 57.269531 50.757812 C 57.15625 50.648438 56.210938 49.734375 55.164062 48.730469 C 54.117188 47.722656 53.238281 46.878906 53.210938 46.847656 L 53.15625 46.796875 L 53.210938 36.929688 C 53.242188 31.503906 53.269531 27.0625 53.273438 27.058594 C 53.273438 27.054688 53.382812 27.023438 53.511719 26.984375 C 57.941406 25.648438 57.898438 23.3125 53.421875 21.847656 C 48.667969 20.289062 40.765625 20.222656 36.324219 21.703125 C 32.757812 22.890625 32.472656 24.839844 35.652344 26.261719 C 35.796875 26.324219 36.316406 26.535156 36.375 26.554688 L 36.40625 26.5625 L 36.40625 27.394531 C 36.40625 27.851562 36.402344 28.777344 36.398438 29.449219 L 36.386719 30.671875 L 36.351562 30.640625 C 35.664062 30.085938 35.3125 29.75 33.003906 27.476562 C 31.730469 26.21875 31.675781 26.160156 31.683594 26.117188 C 32.207031 23.386719 30.863281 20.4375 28.425781 18.972656 C 26.890625 18.050781 24.582031 17.554688 22.394531 17.675781 M 45.960938 20.957031 C 50.007812 21.15625 53.3125 21.859375 55.148438 22.910156 C 57.03125 23.988281 56.941406 25.148438 54.902344 26.132812 C 54.390625 26.382812 53.410156 26.730469 53.144531 26.757812 C 53.074219 26.765625 53.03125 26.777344 53.023438 26.789062 C 53.003906 26.8125 52.742188 26.882812 52.277344 26.988281 C 48.777344 27.773438 43.96875 27.835938 39.960938 27.148438 C 35.683594 26.417969 33.183594 24.96875 33.863281 23.621094 C 34.578125 22.195312 38.359375 21.121094 43.257812 20.945312 C 43.699219 20.929688 45.558594 20.9375 45.960938 20.957031 M 47.957031 22.617188 C 47.839844 22.652344 47.90625 22.6875 48.164062 22.722656 C 49.632812 22.929688 51.144531 24.007812 50.953125 24.710938 C 50.910156 24.859375 51.023438 24.859375 51.089844 24.710938 C 51.332031 24.179688 50.605469 23.371094 49.484375 22.925781 C 48.910156 22.695312 48.195312 22.550781 47.957031 22.617188 M 53.101562 22.808594 C 53.042969 22.832031 53.097656 22.867188 53.304688 22.941406 C 53.703125 23.078125 54.226562 23.382812 54.457031 23.609375 C 55.214844 24.359375 54.691406 25.144531 53.089844 25.675781 C 52.328125 25.925781 51.601562 26.058594 50.023438 26.238281 C 49.632812 26.28125 48.933594 26.386719 48.859375 26.414062 C 48.675781 26.480469 48.847656 26.511719 49.335938 26.5 C 49.789062 26.488281 49.851562 26.484375 50.894531 26.355469 C 53.707031 26.011719 55.28125 25.136719 55.007812 24.070312 C 54.886719 23.597656 54.347656 23.117188 53.6875 22.894531 C 53.441406 22.8125 53.1875 22.773438 53.101562 22.808594 M 43.988281 22.953125 C 41.523438 23.058594 40.042969 23.644531 40.398438 24.375 C 41.140625 25.890625 49.28125 26.097656 50.074219 24.625 C 50.601562 23.644531 47.546875 22.804688 43.988281 22.953125 M 45.460938 23.246094 C 47.679688 23.34375 49.570312 23.808594 49.800781 24.320312 C 49.988281 24.726562 48.730469 25.152344 46.945312 25.289062 C 44.214844 25.5 40.941406 24.941406 40.667969 24.222656 C 40.496094 23.773438 42.105469 23.328125 44.191406 23.242188 C 44.453125 23.234375 45.167969 23.234375 45.460938 23.246094 M 28.285156 23.929688 C 28.835938 24.035156 29.289062 24.296875 29.949219 24.890625 C 30.078125 25.007812 31.0625 25.925781 31.421875 26.269531 C 31.441406 26.289062 31.6875 26.535156 31.972656 26.816406 C 34.464844 29.308594 35.632812 30.425781 36.15625 30.816406 C 36.214844 30.855469 36.324219 30.957031 36.40625 31.035156 C 37.617188 32.195312 38.515625 33.058594 38.660156 33.203125 C 38.761719 33.300781 40.890625 35.351562 43.390625 37.757812 C 45.894531 40.167969 48.800781 42.964844 49.847656 43.976562 C 50.898438 44.988281 52.527344 46.554688 53.464844 47.457031 C 54.402344 48.359375 55.207031 49.132812 55.246094 49.175781 C 55.289062 49.21875 54.941406 48.925781 54.46875 48.53125 C 53.996094 48.132812 53.515625 47.726562 53.394531 47.625 C 53.273438 47.527344 52.59375 46.953125 51.878906 46.347656 C 51.164062 45.746094 50.5 45.1875 50.40625 45.105469 C 50.214844 44.949219 48.488281 43.492188 46.875 42.132812 C 46.316406 41.664062 45.71875 41.160156 45.546875 41.015625 C 45.371094 40.867188 44.949219 40.511719 44.605469 40.222656 C 44.261719 39.929688 43.796875 39.539062 43.574219 39.351562 C 43.351562 39.164062 42.632812 38.558594 41.980469 38.007812 C 40.878906 37.082031 39.121094 35.597656 37.320312 34.082031 C 36.90625 33.734375 36.539062 33.421875 36.503906 33.390625 C 36.46875 33.359375 36.292969 33.199219 36.113281 33.03125 C 35.644531 32.601562 35.222656 32.226562 34.644531 31.734375 C 34.027344 31.203125 33.785156 31 32.238281 29.734375 C 31.507812 29.136719 30.914062 28.640625 30.914062 28.632812 C 30.921875 28.589844 31.089844 28.152344 31.101562 28.140625 C 31.105469 28.136719 31.167969 28.171875 31.242188 28.226562 C 32.082031 28.855469 33.308594 29.664062 33.425781 29.664062 C 33.464844 29.664062 33.542969 29.589844 33.542969 29.554688 C 33.542969 29.382812 32.820312 28.378906 32.214844 27.710938 C 32.179688 27.667969 32.09375 27.578125 32.035156 27.507812 C 31.972656 27.4375 31.835938 27.292969 31.730469 27.179688 C 31.625 27.066406 31.492188 26.925781 31.4375 26.863281 C 31.039062 26.433594 30.292969 25.714844 29.753906 25.238281 C 29.097656 24.664062 28.648438 24.523438 28.371094 24.800781 C 27.914062 25.257812 28.644531 26.214844 30.65625 27.78125 C 30.777344 27.875 30.878906 27.960938 30.882812 27.972656 C 30.894531 27.996094 30.71875 28.464844 30.699219 28.464844 C 30.679688 28.464844 29.59375 27.574219 29.191406 27.230469 C 27.394531 25.695312 26.914062 24.855469 27.453125 24.199219 C 27.667969 23.945312 27.921875 23.863281 28.285156 23.929688 M 28.878906 24.960938 C 29.117188 25.039062 29.515625 25.355469 30.316406 26.105469 C 30.617188 26.390625 31.203125 26.984375 31.210938 27.015625 C 31.214844 27.03125 31.007812 27.683594 30.992188 27.695312 C 30.949219 27.746094 29.472656 26.480469 29.105469 26.078125 C 28.417969 25.324219 28.304688 24.78125 28.878906 24.960938 M 36.976562 26.757812 C 41.230469 28.125 48.628906 28.3125 52.875 27.15625 C 52.917969 27.144531 52.957031 27.136719 52.964844 27.136719 C 52.96875 27.136719 52.972656 27.269531 52.972656 27.429688 L 52.972656 27.726562 L 52.941406 27.726562 C 52.921875 27.726562 52.824219 27.746094 52.726562 27.765625 C 51.605469 28.019531 49.449219 28.207031 46.9375 28.273438 C 46.472656 28.285156 46.207031 28.300781 45.957031 28.324219 C 45.835938 28.335938 45.875 28.363281 46.03125 28.375 C 47.0625 28.445312 48.898438 28.421875 50.03125 28.320312 C 51.265625 28.214844 52.761719 27.941406 52.941406 27.792969 C 52.953125 27.785156 52.960938 27.78125 52.964844 27.785156 C 52.96875 27.789062 52.9375 33.652344 52.933594 33.660156 C 52.925781 33.667969 52.484375 33.847656 52.285156 33.925781 C 51.402344 34.257812 50.367188 34.511719 48.425781 34.867188 C 47.808594 34.976562 47.300781 35.09375 47.300781 35.121094 C 47.300781 35.136719 47.316406 35.140625 47.367188 35.132812 C 47.40625 35.128906 47.546875 35.117188 47.6875 35.105469 C 48.152344 35.066406 49.5 34.855469 50.265625 34.703125 C 51.277344 34.5 52.246094 34.175781 52.808594 33.851562 L 52.929688 33.78125 L 52.929688 35.097656 L 52.894531 35.113281 C 52.449219 35.285156 51.300781 35.398438 49.226562 35.476562 C 48.644531 35.5 48.265625 35.539062 48.355469 35.566406 C 48.515625 35.617188 50.226562 35.601562 51.140625 35.546875 C 51.921875 35.496094 52.503906 35.394531 52.84375 35.242188 C 52.886719 35.222656 52.921875 35.210938 52.925781 35.210938 C 52.941406 35.230469 52.890625 41.277344 52.875 41.289062 C 52.617188 41.449219 50.507812 41.953125 49.617188 42.066406 C 49.335938 42.105469 49.242188 42.140625 49.375 42.167969 C 49.804688 42.246094 52.007812 41.816406 52.71875 41.511719 C 52.808594 41.472656 52.882812 41.441406 52.886719 41.441406 C 52.894531 41.441406 52.875 45.808594 52.863281 46.195312 L 52.855469 46.507812 L 52.277344 45.949219 C 51.960938 45.644531 51.59375 45.289062 51.460938 45.164062 C 48.703125 42.511719 45.269531 39.203125 45.273438 39.199219 C 45.273438 39.195312 45.34375 39.207031 45.421875 39.222656 C 45.886719 39.3125 46.542969 39.375 47.476562 39.425781 C 47.902344 39.445312 50.589844 39.449219 50.71875 39.425781 C 50.796875 39.414062 50.832031 39.386719 50.777344 39.382812 C 50.539062 39.363281 49.894531 39.332031 49.296875 39.316406 C 47.503906 39.265625 45.949219 39.167969 45.242188 39.0625 L 45.109375 39.042969 L 45.015625 38.957031 C 44.753906 38.707031 43.863281 37.84375 43.863281 37.839844 C 43.863281 37.839844 43.898438 37.851562 43.945312 37.871094 C 44.191406 37.96875 45.011719 38.109375 45.765625 38.183594 C 46.894531 38.292969 49.605469 38.410156 49.585938 38.351562 C 49.582031 38.339844 49.5625 38.332031 49.539062 38.328125 C 49.515625 38.328125 49.382812 38.308594 49.238281 38.289062 C 49.097656 38.273438 48.851562 38.246094 48.699219 38.234375 C 48.074219 38.1875 46.777344 38.085938 46.390625 38.050781 C 45.4375 37.972656 45.160156 37.941406 44.488281 37.855469 C 43.996094 37.789062 43.855469 37.78125 43.84375 37.808594 C 43.84375 37.816406 43.222656 37.230469 42.472656 36.507812 C 41.71875 35.785156 41.101562 35.191406 41.097656 35.1875 C 41.097656 35.1875 41.167969 35.203125 41.261719 35.226562 C 41.96875 35.398438 42.8125 35.519531 44.421875 35.679688 C 46.027344 35.835938 46.71875 35.886719 46.667969 35.832031 C 46.644531 35.8125 46.039062 35.71875 45.414062 35.644531 C 42.515625 35.289062 41.910156 35.207031 41.132812 35.058594 L 40.929688 35.023438 L 39.484375 33.632812 C 37.925781 32.132812 37.722656 31.9375 37.730469 31.929688 C 37.734375 31.925781 37.78125 31.941406 37.839844 31.960938 C 38.199219 32.082031 39.167969 32.308594 40.078125 32.476562 C 41.140625 32.675781 43.542969 33.03125 43.816406 33.03125 C 43.875 33.03125 43.84375 33 43.777344 32.988281 C 43.742188 32.980469 43.605469 32.949219 43.476562 32.921875 C 43.34375 32.890625 42.949219 32.816406 42.597656 32.753906 C 41.199219 32.503906 40.949219 32.457031 39.679688 32.21875 C 39.164062 32.121094 38.496094 31.984375 38.097656 31.894531 C 37.890625 31.847656 37.6875 31.804688 37.648438 31.800781 C 37.574219 31.789062 37.570312 31.789062 37.28125 31.507812 C 37.007812 31.246094 36.878906 31.125 36.746094 31.011719 L 36.6875 30.964844 L 36.6875 30.078125 C 36.6875 29.589844 36.691406 29.019531 36.695312 28.8125 L 36.707031 28.429688 L 36.851562 28.5 C 38.261719 29.160156 40.191406 29.640625 42.246094 29.851562 C 43.582031 29.988281 46.25 30.089844 46.25 30.007812 C 46.25 29.996094 46.234375 29.988281 46.21875 29.988281 C 46.199219 29.988281 46.054688 29.972656 45.898438 29.960938 C 45.738281 29.945312 45.386719 29.917969 45.113281 29.902344 C 41.4375 29.6875 39.535156 29.339844 37.078125 28.433594 L 36.703125 28.292969 L 36.703125 27.480469 L 36.820312 27.539062 C 37.625 27.929688 39.78125 28.417969 41.601562 28.617188 C 41.824219 28.640625 42.136719 28.644531 42.136719 28.621094 C 42.136719 28.574219 41.84375 28.511719 39.964844 28.140625 C 38.710938 27.894531 38.507812 27.851562 38.140625 27.757812 C 37.578125 27.617188 37 27.441406 36.753906 27.339844 L 36.703125 27.320312 L 36.703125 26.996094 C 36.703125 26.691406 36.703125 26.671875 36.726562 26.675781 C 36.738281 26.679688 36.851562 26.714844 36.976562 26.757812 M 31.796875 27.636719 C 32.164062 28.042969 32.546875 28.503906 32.820312 28.878906 C 33.039062 29.167969 33.035156 29.164062 32.90625 29.074219 C 32.84375 29.03125 32.6875 28.921875 32.558594 28.835938 C 32.046875 28.484375 31.222656 27.894531 31.207031 27.867188 C 31.203125 27.863281 31.246094 27.714844 31.304688 27.542969 C 31.363281 27.371094 31.410156 27.226562 31.410156 27.222656 C 31.410156 27.214844 31.585938 27.402344 31.796875 27.636719 M 42.695312 28.9375 C 42.695312 29.035156 44.761719 29.257812 46.5 29.34375 C 46.984375 29.367188 48.800781 29.367188 49.160156 29.34375 C 49.972656 29.289062 50.925781 29.167969 51.304688 29.070312 C 51.5625 29.003906 51.570312 29.003906 51.570312 28.988281 C 51.570312 28.96875 51.167969 28.980469 51 29.003906 C 50.691406 29.042969 49.863281 29.109375 49.175781 29.144531 C 48.730469 29.167969 46.898438 29.179688 46.359375 29.160156 C 45.367188 29.125 43.863281 29.027344 43.179688 28.953125 C 42.84375 28.917969 42.695312 28.914062 42.695312 28.9375 M 36.84375 29.824219 C 36.84375 29.992188 39.160156 30.515625 40.824219 30.722656 C 42.136719 30.886719 45.097656 31.078125 45.121094 31 C 45.125 30.992188 45.105469 30.980469 45.082031 30.976562 C 44.894531 30.949219 44.472656 30.90625 43.96875 30.863281 C 41.917969 30.695312 40.671875 30.554688 39.601562 30.371094 C 38.792969 30.234375 37.796875 30.03125 37.292969 29.898438 C 36.929688 29.804688 36.84375 29.789062 36.84375 29.824219 M 52.101562 29.828125 C 52.082031 29.832031 51.96875 29.859375 51.851562 29.886719 C 51.730469 29.917969 51.328125 30.011719 50.957031 30.097656 C 49.8125 30.363281 49.335938 30.476562 49.203125 30.515625 C 49.132812 30.535156 49.046875 30.558594 49.007812 30.570312 C 48.972656 30.582031 48.9375 30.589844 48.933594 30.59375 C 48.886719 30.640625 49.175781 30.605469 49.714844 30.492188 C 51.1875 30.191406 51.402344 30.140625 51.878906 29.980469 C 52.195312 29.875 52.316406 29.789062 52.101562 29.828125 M 39.941406 31.34375 C 39.917969 31.367188 39.933594 31.414062 39.960938 31.421875 C 40.03125 31.441406 40.523438 31.503906 40.894531 31.542969 C 43.707031 31.847656 46.585938 31.9375 48.789062 31.78125 C 49.523438 31.730469 50.328125 31.65625 50.605469 31.609375 C 50.722656 31.589844 50.824219 31.574219 50.828125 31.574219 C 50.835938 31.574219 50.839844 31.5625 50.839844 31.550781 C 50.839844 31.523438 50.527344 31.523438 50.046875 31.550781 C 46.839844 31.738281 44.289062 31.695312 40.679688 31.390625 C 39.972656 31.332031 39.953125 31.328125 39.941406 31.34375 M 51.941406 31.972656 C 51.878906 31.996094 51.753906 32.050781 51.660156 32.089844 C 51.261719 32.265625 50.472656 32.492188 49.78125 32.632812 C 48.972656 32.796875 47.707031 32.90625 46.253906 32.941406 C 45.910156 32.949219 45.296875 32.988281 45.277344 33 C 45.203125 33.046875 45.71875 33.066406 46.804688 33.058594 C 47.925781 33.046875 48.390625 33.023438 49.039062 32.941406 C 50.242188 32.789062 51.621094 32.359375 52.050781 32.003906 C 52.164062 31.910156 52.121094 31.894531 51.941406 31.972656 M 40.652344 33.46875 C 40.550781 33.636719 42.363281 33.894531 44.359375 33.992188 C 45.167969 34.03125 47.398438 34.007812 47.953125 33.953125 C 48.070312 33.941406 48.175781 33.933594 48.191406 33.933594 C 48.203125 33.933594 48.214844 33.921875 48.214844 33.914062 C 48.214844 33.886719 47.953125 33.875 46.628906 33.859375 C 45.398438 33.847656 44.988281 33.835938 44.007812 33.789062 C 42.890625 33.738281 41.667969 33.625 40.996094 33.503906 C 40.734375 33.457031 40.664062 33.449219 40.652344 33.46875 M 37.515625 34.589844 C 38.496094 35.414062 39.703125 36.4375 39.699219 36.441406 C 39.695312 36.445312 39.261719 36.394531 38.851562 36.339844 C 38.472656 36.289062 37.898438 36.191406 37.585938 36.125 C 37.304688 36.0625 37.207031 36.050781 37.199219 36.074219 C 37.160156 36.179688 39.066406 36.558594 39.714844 36.574219 L 39.867188 36.578125 L 40.121094 36.789062 C 40.414062 37.03125 41.976562 38.347656 42.007812 38.378906 C 42.046875 38.410156 41.503906 38.375 40.3125 38.269531 C 40.125 38.25 40.097656 38.253906 40.121094 38.292969 C 40.175781 38.378906 41.296875 38.53125 41.9375 38.542969 L 42.207031 38.546875 L 42.480469 38.777344 C 42.632812 38.902344 43.128906 39.320312 43.578125 39.699219 C 44.03125 40.082031 44.640625 40.59375 44.929688 40.839844 C 46.496094 42.15625 47.214844 42.769531 47.207031 42.777344 C 47.179688 42.800781 45.753906 42.910156 44.886719 42.957031 C 44.613281 42.972656 44.558594 42.980469 44.566406 43.007812 C 44.589844 43.070312 46.132812 43.03125 47.097656 42.9375 C 47.214844 42.925781 47.328125 42.917969 47.355469 42.917969 C 47.390625 42.917969 47.519531 43.019531 48.300781 43.679688 C 48.796875 44.097656 49.347656 44.5625 49.519531 44.707031 C 49.695312 44.855469 50.101562 45.195312 50.421875 45.464844 L 51.003906 45.957031 L 50.910156 45.964844 C 50.859375 45.972656 50.726562 45.996094 50.613281 46.019531 C 50.0625 46.136719 49.367188 46.261719 48.757812 46.347656 C 48.363281 46.40625 48.285156 46.421875 48.285156 46.449219 C 48.285156 46.570312 50.03125 46.371094 50.898438 46.152344 C 51.035156 46.117188 51.15625 46.09375 51.164062 46.097656 C 51.175781 46.105469 51.421875 46.308594 51.710938 46.550781 C 52 46.796875 52.390625 47.125 52.582031 47.285156 C 52.773438 47.445312 52.933594 47.585938 52.9375 47.59375 C 52.945312 47.605469 53.023438 49.890625 53.027344 50.238281 C 53.03125 50.265625 53.011719 50.273438 52.921875 50.304688 C 52.859375 50.324219 52.726562 50.378906 52.621094 50.425781 C 51.457031 50.941406 49.234375 51.34375 45.960938 51.628906 C 44.664062 51.742188 44.324219 51.785156 44.359375 51.84375 C 44.378906 51.875 45.277344 51.820312 46.605469 51.710938 C 49.429688 51.484375 51.785156 51.035156 52.847656 50.523438 C 52.941406 50.480469 53.023438 50.445312 53.027344 50.449219 C 53.03125 50.453125 53.039062 50.566406 53.042969 50.699219 L 53.046875 50.941406 L 52.945312 51.035156 C 49.765625 54.035156 41.328125 54.207031 36.777344 51.363281 L 36.570312 51.230469 L 36.570312 50.753906 C 36.570312 50.488281 36.570312 49.6875 36.570312 48.96875 L 36.574219 47.660156 L 36.710938 47.730469 C 37.144531 47.945312 38.078125 48.226562 39.164062 48.46875 C 40.253906 48.707031 42.441406 49.039062 42.445312 48.960938 C 42.445312 48.941406 41.960938 48.839844 41.34375 48.730469 C 39.238281 48.355469 37.429688 47.917969 36.679688 47.605469 L 36.570312 47.558594 L 36.578125 47.035156 C 36.582031 46.746094 36.589844 46.507812 36.59375 46.503906 C 36.597656 46.5 36.660156 46.511719 36.730469 46.535156 C 37.21875 46.691406 38.378906 46.929688 39.277344 47.058594 C 40.347656 47.210938 41.875 47.34375 41.894531 47.289062 C 41.894531 47.277344 41.878906 47.269531 41.859375 47.265625 C 41.527344 47.199219 41.28125 47.160156 40.828125 47.101562 C 39.339844 46.90625 37.113281 46.53125 36.664062 46.402344 L 36.589844 46.382812 L 36.589844 45.109375 C 36.589844 44.410156 36.59375 43.339844 36.597656 42.730469 L 36.609375 41.628906 L 36.699219 41.664062 C 37.285156 41.882812 38.617188 42.148438 39.769531 42.277344 C 39.945312 42.296875 40.242188 42.332031 40.421875 42.355469 C 41.453125 42.484375 43.085938 42.546875 43.828125 42.488281 C 43.964844 42.476562 44.097656 42.46875 44.121094 42.46875 C 44.144531 42.46875 44.15625 42.460938 44.152344 42.449219 C 44.144531 42.421875 43.695312 42.386719 43.019531 42.355469 C 42.207031 42.320312 41.683594 42.273438 40.183594 42.109375 C 39.039062 41.984375 37.789062 41.773438 36.835938 41.546875 C 36.757812 41.53125 36.671875 41.511719 36.648438 41.503906 L 36.597656 41.496094 L 36.609375 40.054688 C 36.613281 39.265625 36.621094 38.613281 36.621094 38.613281 C 36.625 38.609375 36.703125 38.621094 36.800781 38.640625 C 37.292969 38.738281 37.972656 38.8125 38.78125 38.859375 C 40.488281 38.960938 40.929688 38.894531 39.371094 38.773438 C 38.335938 38.695312 37.316406 38.597656 36.789062 38.527344 L 36.617188 38.503906 L 36.617188 37.746094 C 36.617188 37.328125 36.621094 36.28125 36.628906 35.417969 L 36.636719 33.851562 L 36.847656 34.027344 C 36.960938 34.125 37.261719 34.378906 37.515625 34.589844 M 42.949219 36.574219 C 42.949219 36.6875 44.492188 36.914062 45.910156 37.015625 C 46.351562 37.046875 47.796875 37.050781 48.25 37.023438 C 49.167969 36.964844 50.242188 36.863281 50.671875 36.789062 C 50.78125 36.769531 50.894531 36.75 50.921875 36.746094 C 50.945312 36.742188 50.964844 36.730469 50.960938 36.722656 C 50.953125 36.699219 50.535156 36.710938 49.996094 36.746094 C 47.363281 36.929688 45.71875 36.894531 43.503906 36.613281 C 43.035156 36.554688 42.949219 36.546875 42.949219 36.574219 M 52.726562 37.214844 C 52.710938 37.21875 52.664062 37.230469 52.617188 37.246094 C 52.574219 37.261719 52.3125 37.316406 52.035156 37.371094 C 50.761719 37.625 50.042969 37.785156 50.003906 37.820312 C 49.953125 37.871094 50.195312 37.839844 51.007812 37.691406 C 52.195312 37.480469 52.492188 37.414062 52.65625 37.335938 C 52.796875 37.261719 52.84375 37.183594 52.726562 37.214844 M 36.980469 37.253906 C 36.929688 37.269531 36.9375 37.34375 36.988281 37.34375 C 37.007812 37.34375 37.121094 37.363281 37.238281 37.382812 C 38.46875 37.621094 39.929688 37.746094 40.433594 37.664062 C 40.683594 37.625 40.554688 37.59375 40.035156 37.566406 C 39.492188 37.542969 38.382812 37.421875 37.378906 37.28125 C 37.148438 37.246094 37.035156 37.238281 36.980469 37.253906 M 52.726562 39.28125 C 52.703125 39.285156 52.585938 39.328125 52.46875 39.375 C 52.203125 39.480469 52.070312 39.519531 51.425781 39.703125 C 50.3125 40.011719 49.714844 40.207031 49.714844 40.25 C 49.714844 40.347656 52.105469 39.726562 52.484375 39.53125 C 52.734375 39.398438 52.890625 39.242188 52.726562 39.28125 M 36.882812 39.636719 C 36.886719 39.765625 37.898438 39.921875 39.25 39.996094 C 39.878906 40.035156 41.46875 40.007812 41.515625 39.960938 C 41.546875 39.929688 41.140625 39.898438 40.6875 39.898438 C 39.765625 39.898438 37.648438 39.746094 37.117188 39.644531 C 36.953125 39.613281 36.882812 39.609375 36.882812 39.636719 M 37.953125 40.558594 C 37.953125 40.71875 39.988281 41.019531 41.601562 41.09375 C 42.414062 41.128906 43.945312 41.074219 43.945312 41.007812 C 43.945312 40.976562 43.855469 40.972656 43.011719 40.964844 C 41.09375 40.941406 39.363281 40.804688 38.269531 40.585938 C 38.054688 40.542969 37.953125 40.535156 37.953125 40.558594 M 51.898438 40.667969 C 51.828125 40.667969 51.621094 40.6875 51.4375 40.707031 C 51.082031 40.742188 50.703125 40.773438 50.265625 40.796875 C 50.121094 40.804688 49.863281 40.820312 49.695312 40.832031 C 49.085938 40.871094 48.800781 40.882812 48.296875 40.878906 C 48.015625 40.878906 47.777344 40.878906 47.765625 40.886719 C 47.527344 41.035156 49.761719 41.042969 50.964844 40.902344 C 51.691406 40.816406 52.328125 40.65625 51.898438 40.667969 M 52.644531 42.476562 C 52.621094 42.480469 52.527344 42.507812 52.433594 42.539062 C 52.257812 42.597656 52.054688 42.644531 51.84375 42.683594 C 51.773438 42.699219 51.550781 42.746094 51.34375 42.789062 C 50.785156 42.914062 50.511719 42.960938 50.1875 42.988281 C 49.78125 43.019531 49.890625 43.09375 50.339844 43.089844 C 50.914062 43.085938 52.136719 42.84375 52.503906 42.660156 C 52.644531 42.59375 52.785156 42.449219 52.695312 42.46875 C 52.691406 42.472656 52.667969 42.472656 52.644531 42.476562 M 38.25 43.003906 C 38.308594 43.1875 41.648438 43.777344 43.722656 43.96875 C 44.761719 44.066406 46.121094 44.121094 46.121094 44.0625 C 46.121094 44.042969 45.675781 43.980469 45.292969 43.949219 C 44.613281 43.890625 43.917969 43.816406 43.011719 43.703125 C 42.710938 43.664062 42.261719 43.609375 42.015625 43.578125 C 40.617188 43.398438 39.527344 43.234375 38.90625 43.105469 C 38.339844 42.984375 38.238281 42.972656 38.25 43.003906 M 37.460938 43.511719 C 37.460938 43.574219 38.070312 43.828125 38.546875 43.960938 C 39.71875 44.292969 41.285156 44.523438 42.871094 44.601562 C 43.828125 44.652344 45.609375 44.605469 45.390625 44.539062 C 45.339844 44.523438 44.792969 44.488281 44.492188 44.480469 C 41.855469 44.417969 39.25 44.074219 37.855469 43.609375 C 37.488281 43.488281 37.460938 43.480469 37.460938 43.511719 M 52.265625 43.703125 C 52.210938 43.71875 52.027344 43.757812 51.855469 43.792969 C 51.6875 43.828125 51.449219 43.886719 51.328125 43.917969 C 51.210938 43.953125 51.046875 43.996094 50.964844 44.011719 C 50.730469 44.0625 50.699219 44.070312 50.699219 44.089844 C 50.699219 44.191406 51.621094 44.066406 52.125 43.894531 C 52.535156 43.753906 52.648438 43.597656 52.265625 43.703125 M 36.617188 44.207031 C 36.617188 44.328125 37.386719 44.585938 38.351562 44.796875 C 39.363281 45.015625 41.011719 45.277344 41.714844 45.332031 C 41.816406 45.339844 41.9375 45.347656 41.976562 45.355469 C 42.035156 45.359375 42.050781 45.359375 42.050781 45.34375 C 42.050781 45.316406 41.566406 45.222656 40.753906 45.085938 C 39.960938 44.953125 39.457031 44.863281 38.679688 44.703125 C 37.625 44.484375 37.359375 44.417969 36.957031 44.285156 C 36.699219 44.195312 36.617188 44.179688 36.617188 44.207031 M 37.125 45.3125 C 37.125 45.371094 37.734375 45.503906 38.210938 45.550781 C 38.257812 45.554688 38.394531 45.570312 38.511719 45.585938 C 39.496094 45.707031 39.945312 45.746094 39.945312 45.714844 C 39.945312 45.664062 38.488281 45.425781 37.558594 45.324219 C 37.179688 45.28125 37.125 45.28125 37.125 45.3125 M 47.695312 45.445312 C 47.457031 45.453125 46.726562 45.472656 45.59375 45.5 C 45.246094 45.507812 44.605469 45.515625 44.175781 45.515625 C 43.054688 45.511719 43.132812 45.511719 43.132812 45.535156 C 43.132812 45.546875 43.136719 45.554688 43.144531 45.554688 C 43.148438 45.554688 43.203125 45.5625 43.265625 45.570312 C 43.921875 45.652344 46.179688 45.679688 47.097656 45.621094 C 48.074219 45.554688 48.664062 45.492188 48.664062 45.449219 C 48.664062 45.425781 48.132812 45.425781 47.695312 45.445312 M 40.75 46.09375 C 40.667969 46.222656 42.605469 46.492188 44.148438 46.566406 C 45.230469 46.617188 46.789062 46.621094 46.804688 46.570312 C 46.808594 46.5625 46.785156 46.550781 46.738281 46.546875 C 46.535156 46.527344 46.246094 46.507812 45.871094 46.496094 C 44.957031 46.464844 44.3125 46.429688 43.246094 46.347656 C 42.222656 46.273438 41.808594 46.226562 41.136719 46.125 C 40.882812 46.085938 40.761719 46.074219 40.75 46.09375 M 51.710938 47.039062 C 51.644531 47.054688 51.472656 47.105469 51.324219 47.15625 C 50.164062 47.535156 48.183594 47.859375 46.289062 47.976562 C 44.757812 48.074219 42.613281 48.039062 41.46875 47.902344 C 41.109375 47.859375 40.957031 47.851562 40.957031 47.875 C 40.957031 47.945312 41.777344 48.066406 42.578125 48.109375 C 46.078125 48.3125 49.585938 47.964844 51.449219 47.234375 C 51.816406 47.089844 51.976562 46.96875 51.710938 47.039062 M 52.375 47.703125 C 52.316406 47.71875 52.136719 47.769531 51.984375 47.820312 C 50.269531 48.390625 48.136719 48.761719 44.578125 49.109375 C 43.953125 49.167969 43.832031 49.1875 43.832031 49.214844 C 43.832031 49.304688 45.679688 49.207031 47.195312 49.03125 C 49.605469 48.75 51.820312 48.21875 52.421875 47.777344 C 52.550781 47.683594 52.542969 47.671875 52.375 47.703125 M 52.015625 48.875 C 51.941406 48.902344 51.796875 48.957031 51.699219 49 C 51.164062 49.230469 50.277344 49.527344 49.539062 49.730469 C 49.261719 49.804688 49.03125 49.855469 48.617188 49.929688 C 48.367188 49.972656 48.335938 49.980469 48.328125 50.003906 C 48.320312 50.039062 48.628906 50.015625 49.054688 49.957031 C 50.125 49.804688 51.414062 49.371094 52.078125 48.941406 C 52.265625 48.820312 52.246094 48.796875 52.015625 48.875 M 36.777344 48.855469 C 36.75 48.902344 36.808594 48.925781 37.152344 49.003906 C 38.863281 49.386719 40.316406 49.554688 41.582031 49.519531 C 42.359375 49.5 42.378906 49.4375 41.621094 49.402344 C 40.363281 49.347656 39.050781 49.207031 37.925781 49.007812 C 37.089844 48.863281 36.964844 48.839844 36.878906 48.839844 C 36.828125 48.839844 36.785156 48.847656 36.777344 48.855469 M 47.785156 49.734375 C 47.671875 49.746094 47.429688 49.773438 47.253906 49.796875 C 45.984375 49.964844 44.601562 50.078125 43.773438 50.078125 C 43.292969 50.078125 43.160156 50.085938 43.160156 50.113281 C 43.160156 50.125 43.160156 50.132812 43.164062 50.132812 C 43.164062 50.132812 43.222656 50.140625 43.285156 50.152344 C 43.832031 50.25 45.316406 50.1875 46.515625 50.019531 C 47.414062 49.894531 48.046875 49.773438 48.046875 49.730469 C 48.046875 49.71875 48.035156 49.710938 48.019531 49.714844 C 48.007812 49.714844 47.902344 49.722656 47.785156 49.734375 M 53.511719 49.96875 C 53.582031 49.988281 53.65625 50.007812 53.683594 50.007812 C 53.742188 50.007812 54.257812 50.179688 54.589844 50.3125 C 55.820312 50.804688 56.53125 51.4375 56.476562 51.988281 C 56.339844 53.367188 52.53125 54.574219 47.429688 54.855469 C 46.59375 54.902344 46.199219 54.914062 45.167969 54.914062 C 40.308594 54.914062 36.019531 54.097656 34.355469 52.863281 C 33.09375 51.921875 33.738281 50.914062 36.121094 50.089844 L 36.277344 50.039062 L 36.273438 50.679688 C 36.273438 51.445312 36.257812 51.394531 36.519531 51.558594 C 41.089844 54.464844 49.476562 54.398438 52.953125 51.429688 C 53.160156 51.253906 53.332031 51.089844 53.34375 51.058594 C 53.347656 51.039062 53.339844 50.574219 53.320312 50.082031 L 53.3125 49.910156 L 53.351562 49.921875 C 53.371094 49.929688 53.445312 49.949219 53.511719 49.96875 M 37.320312 50.109375 C 37.320312 50.25 39.085938 50.648438 40.421875 50.804688 C 41.296875 50.910156 42.992188 50.96875 42.992188 50.898438 C 42.992188 50.871094 42.707031 50.839844 42.121094 50.800781 C 40.570312 50.695312 38.804688 50.445312 37.765625 50.183594 C 37.410156 50.09375 37.320312 50.078125 37.320312 50.109375 M 54.410156 50.773438 C 54.398438 50.800781 54.410156 50.808594 54.511719 50.863281 C 54.949219 51.09375 55.328125 51.640625 55.277344 51.957031 C 55.1875 52.484375 54.558594 52.808594 52.707031 53.277344 C 51.574219 53.5625 51.402344 53.613281 51.402344 53.65625 C 51.402344 53.730469 52.128906 53.644531 52.769531 53.496094 C 54.460938 53.09375 55.269531 52.691406 55.460938 52.144531 C 55.609375 51.714844 55.320312 51.136719 54.808594 50.855469 C 54.632812 50.761719 54.429688 50.71875 54.410156 50.773438 M 38.957031 51.945312 C 38.914062 52.007812 40.699219 52.390625 41.714844 52.53125 C 42.816406 52.6875 44.644531 52.796875 45.636719 52.761719 C 46.210938 52.746094 45.929688 52.695312 44.984375 52.652344 C 42.90625 52.558594 41.707031 52.417969 39.761719 52.042969 C 39.203125 51.933594 38.976562 51.90625 38.957031 51.945312 "/></g><g style="fill:#2baab7;fill-opacity:1;"><g transform="translate(37.499998, 5.412204)"><path style="stroke:none" d="M 0.234375 -0.296875 C 0.234375 -0.410156 0.265625 -0.492188 0.328125 -0.546875 C 0.390625 -0.609375 0.476562 -0.640625 0.59375 -0.640625 C 0.707031 -0.640625 0.796875 -0.609375 0.859375 -0.546875 C 0.921875 -0.492188 0.953125 -0.410156 0.953125 -0.296875 C 0.953125 -0.179688 0.921875 -0.09375 0.859375 -0.03125 C 0.796875 0.03125 0.707031 0.0625 0.59375 0.0625 C 0.476562 0.0625 0.390625 0.03125 0.328125 -0.03125 C 0.265625 -0.09375 0.234375 -0.179688 0.234375 -0.296875 Z M 0.234375 -0.296875 "/></g></g></g></svg>