<svg xmlns="http://www.w3.org/2000/svg" xmlns:xlink="http://www.w3.org/1999/xlink" width="100" zoomAndPan="magnify" viewBox="0 0 75 74.999997" height="100" preserveAspectRatio="xMidYMid meet" version="1.2"><defs><clipPath id="5155632317"><path d="M 7.5 4.613281 L 65.855469 4.613281 L 65.855469 72.109375 L 7.5 72.109375 Z M 7.5 4.613281 "/></clipPath><clipPath id="245c8fa5b4"><path d="M 11.25 4.613281 L 61.945312 4.613281 C 64.015625 4.613281 65.695312 6.292969 65.695312 8.363281 L 65.695312 68.359375 C 65.695312 70.429688 64.015625 72.109375 61.945312 72.109375 L 11.25 72.109375 C 9.179688 72.109375 7.5 70.429688 7.5 68.359375 L 7.5 8.363281 C 7.5 6.292969 9.179688 4.613281 11.25 4.613281 Z M 11.25 4.613281 "/></clipPath><clipPath id="d383e45b34"><path d="M 12.519531 21 L 61.269531 21 L 61.269531 67.621094 L 12.519531 67.621094 Z M 12.519531 21 "/></clipPath><clipPath id="ebebeb95f8"><path d="M 24 9.121094 L 50 9.121094 L 50 31 L 24 31 Z M 24 9.121094 "/></clipPath></defs><g id="e429ebdcdb"><g clip-rule="nonzero" clip-path="url(#5155632317)"><g clip-rule="nonzero" clip-path="url(#245c8fa5b4)"><path style="fill:none;stroke-width:2;stroke-linecap:butt;stroke-linejoin:miter;stroke:#2baab7;stroke-opacity:1;stroke-miterlimit:4;" d="M 4.999999 -0.0024637 L 72.593755 -0.0024637 C 75.354172 -0.0024637 77.593755 2.23712 77.593755 4.997537 L 77.593755 84.992335 C 77.593755 87.752752 75.354172 89.992335 72.593755 89.992335 L 4.999999 89.992335 C 2.239582 89.992335 -0.00000118333 87.752752 -0.00000118333 84.992335 L -0.00000118333 4.997537 C -0.00000118333 2.23712 2.239582 -0.0024637 4.999999 -0.0024637 Z M 4.999999 -0.0024637 " transform="matrix(0.75,0,0,0.75,7.500001,4.615129)"/></g></g><g clip-rule="nonzero" clip-path="url(#d383e45b34)"><path style=" stroke:none;fill-rule:nonzero;fill:#2baab7;fill-opacity:1;" d="M 57.675781 67.597656 L 16.359375 67.597656 C 15.359375 67.597656 14.382812 67.179688 13.695312 66.453125 C 13.007812 65.722656 12.640625 64.730469 12.699219 63.726562 L 14.875 24.578125 C 14.980469 22.632812 16.589844 21.109375 18.535156 21.109375 L 55.5 21.109375 C 57.449219 21.109375 59.054688 22.632812 59.164062 24.578125 L 61.339844 63.726562 C 61.394531 64.730469 61.03125 65.722656 60.339844 66.453125 C 59.652344 67.179688 58.679688 67.597656 57.675781 67.597656 Z M 18.535156 23.558594 C 17.886719 23.558594 17.347656 24.066406 17.316406 24.710938 L 15.140625 63.859375 C 15.121094 64.199219 15.238281 64.523438 15.472656 64.769531 C 15.707031 65.015625 16.019531 65.152344 16.359375 65.152344 L 57.675781 65.152344 C 58.015625 65.152344 58.332031 65.015625 58.5625 64.769531 C 58.796875 64.523438 58.917969 64.199219 58.898438 63.859375 L 56.722656 24.710938 C 56.6875 24.066406 56.148438 23.558594 55.5 23.558594 Z M 18.535156 23.558594 "/></g><g clip-rule="nonzero" clip-path="url(#ebebeb95f8)"><path style=" stroke:none;fill-rule:nonzero;fill:#2baab7;fill-opacity:1;" d="M 48.027344 30.957031 C 47.351562 30.957031 46.804688 30.410156 46.804688 29.734375 L 46.804688 21.335938 C 46.804688 15.9375 42.414062 11.550781 37.019531 11.550781 C 31.621094 11.550781 27.230469 15.9375 27.230469 21.335938 L 27.230469 29.734375 C 27.230469 30.410156 26.683594 30.957031 26.007812 30.957031 C 25.332031 30.957031 24.785156 30.410156 24.785156 29.734375 L 24.785156 21.335938 C 24.785156 14.589844 30.273438 9.101562 37.019531 9.101562 C 43.765625 9.101562 49.253906 14.589844 49.253906 21.335938 L 49.253906 29.734375 C 49.253906 30.410156 48.703125 30.957031 48.027344 30.957031 Z M 48.027344 30.957031 "/></g><g style="fill:#2baab7;fill-opacity:1;"><g transform="translate(37.499998, 10.59922)"><path style="stroke:none" d="M 0.234375 -0.296875 C 0.234375 -0.410156 0.265625 -0.492188 0.328125 -0.546875 C 0.390625 -0.609375 0.476562 -0.640625 0.59375 -0.640625 C 0.707031 -0.640625 0.796875 -0.609375 0.859375 -0.546875 C 0.921875 -0.492188 0.953125 -0.410156 0.953125 -0.296875 C 0.953125 -0.179688 0.921875 -0.09375 0.859375 -0.03125 C 0.796875 0.03125 0.707031 0.0625 0.59375 0.0625 C 0.476562 0.0625 0.390625 0.03125 0.328125 -0.03125 C 0.265625 -0.09375 0.234375 -0.179688 0.234375 -0.296875 Z M 0.234375 -0.296875 "/></g></g></g></svg>