<svg xmlns="http://www.w3.org/2000/svg" xmlns:xlink="http://www.w3.org/1999/xlink" width="100" zoomAndPan="magnify" viewBox="0 0 75 74.999997" height="100" preserveAspectRatio="xMidYMid meet" version="1.2"><defs><clipPath id="1876436464"><path d="M 7.5 4.613281 L 65.855469 4.613281 L 65.855469 72.109375 L 7.5 72.109375 Z M 7.5 4.613281 "/></clipPath><clipPath id="efece3ce55"><path d="M 11.25 4.613281 L 61.945312 4.613281 C 64.015625 4.613281 65.695312 6.292969 65.695312 8.363281 L 65.695312 68.359375 C 65.695312 70.429688 64.015625 72.109375 61.945312 72.109375 L 11.25 72.109375 C 9.179688 72.109375 7.5 70.429688 7.5 68.359375 L 7.5 8.363281 C 7.5 6.292969 9.179688 4.613281 11.25 4.613281 Z M 11.25 4.613281 "/></clipPath><clipPath id="c955935e7e"><path d="M 22.113281 8.816406 L 51 8.816406 L 51 67.316406 L 22.113281 67.316406 Z M 22.113281 8.816406 "/></clipPath></defs><g id="84aa54ec79"><g clip-rule="nonzero" clip-path="url(#1876436464)"><g clip-rule="nonzero" clip-path="url(#efece3ce55)"><path style="fill:none;stroke-width:2;stroke-linecap:butt;stroke-linejoin:miter;stroke:#2baab7;stroke-opacity:1;stroke-miterlimit:4;" d="M 4.999999 -0.0024637 L 72.593755 -0.0024637 C 75.354172 -0.0024637 77.593755 2.23712 77.593755 4.997537 L 77.593755 84.992335 C 77.593755 87.752752 75.354172 89.992335 72.593755 89.992335 L 4.999999 89.992335 C 2.239582 89.992335 -0.00000118333 87.752752 -0.00000118333 84.992335 L -0.00000118333 4.997537 C -0.00000118333 2.23712 2.239582 -0.0024637 4.999999 -0.0024637 Z M 4.999999 -0.0024637 " transform="matrix(0.75,0,0,0.75,7.500001,4.615129)"/></g></g><g clip-rule="nonzero" clip-path="url(#c955935e7e)"><path style=" stroke:none;fill-rule:nonzero;fill:#2baab7;fill-opacity:1;" d="M 50.972656 28.714844 L 50.972656 26.890625 C 50.972656 20.28125 45.472656 14.816406 38.382812 13.996094 L 38.382812 8.816406 L 34.722656 8.816406 L 34.722656 13.996094 C 27.632812 14.816406 22.132812 20.28125 22.132812 26.890625 C 22.132812 33.886719 28.390625 36.730469 34.722656 39.304688 L 34.722656 58.457031 C 29.65625 57.699219 25.78125 53.871094 25.78125 49.25 L 25.78125 47.425781 L 22.132812 47.425781 L 22.132812 49.25 C 22.132812 55.847656 27.632812 61.3125 34.722656 62.132812 L 34.722656 67.316406 L 38.382812 67.316406 L 38.382812 62.132812 C 45.472656 61.3125 50.972656 55.847656 50.972656 49.238281 C 50.972656 42.242188 44.714844 39.398438 38.382812 36.824219 L 38.382812 17.683594 C 43.449219 18.445312 47.324219 22.269531 47.324219 26.890625 L 47.324219 28.714844 Z M 34.722656 35.339844 C 29.117188 32.964844 25.78125 30.90625 25.78125 26.890625 C 25.78125 22.28125 29.65625 18.445312 34.722656 17.683594 Z M 47.324219 49.238281 C 47.324219 53.847656 43.449219 57.6875 38.382812 58.445312 L 38.382812 40.789062 C 43.988281 43.164062 47.324219 45.226562 47.324219 49.238281 Z M 47.324219 49.238281 "/></g><g style="fill:#2baab7;fill-opacity:1;"><g transform="translate(36.299999, 15.576921)"><path style="stroke:none" d="M 0.234375 -0.296875 C 0.234375 -0.410156 0.265625 -0.492188 0.328125 -0.546875 C 0.390625 -0.609375 0.476562 -0.640625 0.59375 -0.640625 C 0.707031 -0.640625 0.796875 -0.609375 0.859375 -0.546875 C 0.921875 -0.492188 0.953125 -0.410156 0.953125 -0.296875 C 0.953125 -0.179688 0.921875 -0.09375 0.859375 -0.03125 C 0.796875 0.03125 0.707031 0.0625 0.59375 0.0625 C 0.476562 0.0625 0.390625 0.03125 0.328125 -0.03125 C 0.265625 -0.09375 0.234375 -0.179688 0.234375 -0.296875 Z M 0.234375 -0.296875 "/></g></g></g></svg>