<svg xmlns="http://www.w3.org/2000/svg" xmlns:xlink="http://www.w3.org/1999/xlink" width="100" zoomAndPan="magnify" viewBox="0 0 75 74.999997" height="100" preserveAspectRatio="xMidYMid meet" version="1.2"><defs><clipPath id="81afafb10f"><path d="M 7.5 4.613281 L 65.855469 4.613281 L 65.855469 72.109375 L 7.5 72.109375 Z M 7.5 4.613281 "/></clipPath><clipPath id="40b035acaa"><path d="M 11.25 4.613281 L 61.945312 4.613281 C 64.015625 4.613281 65.695312 6.292969 65.695312 8.363281 L 65.695312 68.359375 C 65.695312 70.429688 64.015625 72.109375 61.945312 72.109375 L 11.25 72.109375 C 9.179688 72.109375 7.5 70.429688 7.5 68.359375 L 7.5 8.363281 C 7.5 6.292969 9.179688 4.613281 11.25 4.613281 Z M 11.25 4.613281 "/></clipPath><clipPath id="5c50a29958"><path d="M 14.640625 11 L 58.890625 11 L 58.890625 68.234375 L 14.640625 68.234375 Z M 14.640625 11 "/></clipPath><clipPath id="577a211af1"><path d="M 31 6.734375 L 42 6.734375 L 42 17 L 31 17 Z M 31 6.734375 "/></clipPath></defs><g id="e2a0a24daf"><g clip-rule="nonzero" clip-path="url(#81afafb10f)"><g clip-rule="nonzero" clip-path="url(#40b035acaa)"><path style="fill:none;stroke-width:2;stroke-linecap:butt;stroke-linejoin:miter;stroke:#2baab7;stroke-opacity:1;stroke-miterlimit:4;" d="M 4.999999 -0.0024637 L 72.593755 -0.0024637 C 75.354172 -0.0024637 77.593755 2.23712 77.593755 4.997537 L 77.593755 84.992335 C 77.593755 87.752752 75.354172 89.992335 72.593755 89.992335 L 4.999999 89.992335 C 2.239582 89.992335 -0.00000118333 87.752752 -0.00000118333 84.992335 L -0.00000118333 4.997537 C -0.00000118333 2.23712 2.239582 -0.0024637 4.999999 -0.0024637 Z M 4.999999 -0.0024637 " transform="matrix(0.75,0,0,0.75,7.500001,4.615129)"/></g></g><path style=" stroke:none;fill-rule:evenodd;fill:#2baab7;fill-opacity:1;" d="M 23.40625 26.710938 C 23.359375 26.671875 23.292969 26.675781 23.25 26.71875 C 23.019531 26.96875 22.296875 27.734375 22.050781 27.996094 C 22.027344 28.019531 22.015625 28.050781 22.019531 28.082031 C 22.019531 28.113281 22.035156 28.144531 22.058594 28.164062 C 22.523438 28.546875 24.570312 30.242188 25.09375 30.675781 C 25.164062 30.734375 25.265625 30.730469 25.332031 30.667969 C 26.035156 29.988281 29.753906 26.40625 30.382812 25.800781 C 30.40625 25.777344 30.421875 25.746094 30.421875 25.710938 C 30.417969 25.679688 30.40625 25.648438 30.382812 25.628906 C 30.128906 25.398438 29.4375 24.769531 29.199219 24.554688 C 29.152344 24.515625 29.082031 24.515625 29.039062 24.558594 C 28.546875 25.023438 25.914062 27.53125 25.332031 28.089844 C 25.265625 28.152344 25.164062 28.152344 25.09375 28.097656 C 24.738281 27.804688 23.707031 26.957031 23.40625 26.710938 Z M 23.40625 26.710938 "/><path style=" stroke:none;fill-rule:evenodd;fill:#2baab7;fill-opacity:1;" d="M 52.503906 28.507812 C 52.503906 28.472656 52.488281 28.4375 52.464844 28.414062 C 52.441406 28.386719 52.40625 28.375 52.371094 28.375 C 50.800781 28.375 35.640625 28.375 34.070312 28.375 C 34.035156 28.375 34 28.386719 33.976562 28.414062 C 33.953125 28.4375 33.9375 28.472656 33.9375 28.507812 C 33.9375 28.90625 33.9375 30.101562 33.9375 30.5 C 33.9375 30.535156 33.953125 30.570312 33.976562 30.59375 C 34 30.621094 34.035156 30.632812 34.070312 30.632812 C 35.640625 30.632812 50.800781 30.632812 52.371094 30.632812 C 52.40625 30.632812 52.441406 30.621094 52.464844 30.59375 C 52.488281 30.570312 52.503906 30.535156 52.503906 30.5 C 52.503906 30.101562 52.503906 28.90625 52.503906 28.507812 Z M 52.503906 28.507812 "/><path style=" stroke:none;fill-rule:evenodd;fill:#2baab7;fill-opacity:1;" d="M 23.40625 36.570312 C 23.359375 36.53125 23.292969 36.535156 23.25 36.578125 C 23.019531 36.828125 22.296875 37.59375 22.050781 37.855469 C 22.027344 37.878906 22.015625 37.910156 22.019531 37.941406 C 22.019531 37.972656 22.035156 38 22.058594 38.019531 C 22.523438 38.40625 24.570312 40.097656 25.09375 40.535156 C 25.164062 40.59375 25.265625 40.589844 25.332031 40.523438 C 26.035156 39.847656 29.753906 36.265625 30.382812 35.65625 C 30.40625 35.632812 30.421875 35.605469 30.421875 35.570312 C 30.417969 35.539062 30.40625 35.507812 30.382812 35.484375 C 30.128906 35.257812 29.4375 34.628906 29.199219 34.414062 C 29.152344 34.371094 29.082031 34.375 29.039062 34.414062 C 28.546875 34.882812 25.914062 37.390625 25.332031 37.945312 C 25.265625 38.007812 25.164062 38.011719 25.09375 37.957031 C 24.738281 37.664062 23.707031 36.816406 23.40625 36.570312 Z M 23.40625 36.570312 "/><path style=" stroke:none;fill-rule:evenodd;fill:#2baab7;fill-opacity:1;" d="M 52.503906 38.363281 C 52.503906 38.328125 52.488281 38.296875 52.464844 38.269531 C 52.441406 38.246094 52.40625 38.230469 52.371094 38.230469 C 50.800781 38.230469 35.640625 38.230469 34.070312 38.230469 C 34.035156 38.230469 34 38.246094 33.976562 38.269531 C 33.953125 38.296875 33.9375 38.328125 33.9375 38.363281 C 33.9375 38.761719 33.9375 39.960938 33.9375 40.359375 C 33.9375 40.394531 33.953125 40.425781 33.976562 40.453125 C 34 40.476562 34.035156 40.492188 34.070312 40.492188 C 35.640625 40.492188 50.800781 40.492188 52.371094 40.492188 C 52.40625 40.492188 52.441406 40.476562 52.464844 40.453125 C 52.488281 40.425781 52.503906 40.394531 52.503906 40.359375 C 52.503906 39.960938 52.503906 38.761719 52.503906 38.363281 Z M 52.503906 38.363281 "/><path style=" stroke:none;fill-rule:evenodd;fill:#2baab7;fill-opacity:1;" d="M 23.40625 46.425781 C 23.359375 46.390625 23.292969 46.394531 23.25 46.4375 C 23.019531 46.683594 22.296875 47.453125 22.050781 47.714844 C 22.027344 47.734375 22.015625 47.765625 22.019531 47.796875 C 22.019531 47.828125 22.035156 47.859375 22.058594 47.878906 C 22.523438 48.261719 24.570312 49.957031 25.09375 50.390625 C 25.164062 50.449219 25.265625 50.445312 25.332031 50.382812 C 26.035156 49.703125 29.753906 46.121094 30.382812 45.515625 C 30.40625 45.492188 30.421875 45.460938 30.421875 45.429688 C 30.417969 45.394531 30.40625 45.367188 30.382812 45.34375 C 30.128906 45.113281 29.4375 44.484375 29.199219 44.269531 C 29.152344 44.230469 29.082031 44.230469 29.039062 44.273438 C 28.546875 44.742188 25.914062 47.25 25.332031 47.804688 C 25.265625 47.867188 25.164062 47.871094 25.09375 47.8125 C 24.738281 47.519531 23.707031 46.671875 23.40625 46.425781 Z M 23.40625 46.425781 "/><path style=" stroke:none;fill-rule:evenodd;fill:#2baab7;fill-opacity:1;" d="M 52.503906 48.222656 C 52.503906 48.1875 52.488281 48.152344 52.464844 48.128906 C 52.441406 48.105469 52.40625 48.089844 52.371094 48.089844 C 50.800781 48.089844 35.640625 48.089844 34.070312 48.089844 C 34.035156 48.089844 34 48.105469 33.976562 48.128906 C 33.953125 48.152344 33.9375 48.1875 33.9375 48.222656 C 33.9375 48.621094 33.9375 49.820312 33.9375 50.21875 C 33.9375 50.253906 33.953125 50.285156 33.976562 50.3125 C 34 50.335938 34.035156 50.347656 34.070312 50.347656 C 35.640625 50.347656 50.800781 50.347656 52.371094 50.347656 C 52.40625 50.347656 52.441406 50.335938 52.464844 50.3125 C 52.488281 50.285156 52.503906 50.253906 52.503906 50.21875 C 52.503906 49.820312 52.503906 48.621094 52.503906 48.222656 Z M 52.503906 48.222656 "/><path style=" stroke:none;fill-rule:evenodd;fill:#2baab7;fill-opacity:1;" d="M 23.40625 56.285156 C 23.359375 56.246094 23.292969 56.253906 23.25 56.296875 C 23.019531 56.542969 22.296875 57.308594 22.050781 57.570312 C 22.027344 57.59375 22.015625 57.625 22.019531 57.65625 C 22.019531 57.6875 22.035156 57.71875 22.058594 57.738281 C 22.523438 58.121094 24.570312 59.816406 25.09375 60.25 C 25.164062 60.308594 25.265625 60.304688 25.332031 60.242188 C 26.035156 59.5625 29.753906 55.980469 30.382812 55.375 C 30.40625 55.351562 30.421875 55.320312 30.421875 55.289062 C 30.417969 55.253906 30.40625 55.222656 30.382812 55.203125 C 30.128906 54.972656 29.4375 54.34375 29.199219 54.128906 C 29.152344 54.089844 29.082031 54.089844 29.039062 54.132812 C 28.546875 54.597656 25.914062 57.105469 25.332031 57.664062 C 25.265625 57.726562 25.164062 57.730469 25.09375 57.671875 C 24.738281 57.378906 23.707031 56.53125 23.40625 56.285156 Z M 23.40625 56.285156 "/><path style=" stroke:none;fill-rule:evenodd;fill:#2baab7;fill-opacity:1;" d="M 52.503906 58.082031 C 52.503906 58.046875 52.488281 58.011719 52.464844 57.988281 C 52.441406 57.964844 52.40625 57.949219 52.371094 57.949219 C 50.800781 57.949219 35.640625 57.949219 34.070312 57.949219 C 34.035156 57.949219 34 57.964844 33.976562 57.988281 C 33.953125 58.011719 33.9375 58.046875 33.9375 58.082031 C 33.9375 58.480469 33.9375 59.675781 33.9375 60.078125 C 33.9375 60.109375 33.953125 60.144531 33.976562 60.167969 C 34 60.195312 34.035156 60.207031 34.070312 60.207031 C 35.640625 60.207031 50.800781 60.207031 52.371094 60.207031 C 52.40625 60.207031 52.441406 60.195312 52.464844 60.167969 C 52.488281 60.144531 52.503906 60.109375 52.503906 60.078125 C 52.503906 59.675781 52.503906 58.480469 52.503906 58.082031 Z M 52.503906 58.082031 "/><g clip-rule="nonzero" clip-path="url(#5c50a29958)"><path style=" stroke:none;fill-rule:evenodd;fill:#2baab7;fill-opacity:1;" d="M 58.507812 18.054688 C 58.507812 18.011719 58.507812 17.964844 58.503906 17.917969 C 58.421875 15.980469 56.691406 14.410156 54.847656 14.394531 C 52.691406 14.386719 50.535156 14.378906 48.375 14.375 L 48.375 12.96875 C 48.375 12.421875 47.933594 11.980469 47.386719 11.980469 C 45.8125 11.980469 42.550781 11.980469 38.980469 11.980469 C 38.796875 13.132812 37.800781 14.019531 36.597656 14.019531 C 35.390625 14.019531 34.390625 13.132812 34.210938 11.980469 C 30.640625 11.980469 27.378906 11.980469 25.804688 11.980469 C 25.257812 11.980469 24.816406 12.421875 24.816406 12.96875 L 24.816406 14.375 C 22.660156 14.378906 20.503906 14.386719 18.347656 14.394531 C 16.304688 14.410156 14.699219 16.167969 14.683594 18.054688 C 14.628906 33.484375 14.628906 48.910156 14.683594 64.335938 C 14.699219 66.34375 16.4375 67.980469 18.347656 68 C 30.511719 68.03125 42.679688 68.03125 54.847656 68 C 54.882812 68 54.921875 68 54.960938 67.996094 C 56.894531 67.925781 58.492188 66.214844 58.511719 64.335938 C 58.542969 48.910156 58.542969 33.484375 58.507812 18.054688 Z M 56.179688 64.320312 C 56.171875 65.054688 55.539062 65.660156 54.839844 65.671875 C 42.679688 65.789062 30.519531 65.703125 18.359375 65.671875 C 17.625 65.664062 17.019531 65.027344 17.011719 64.328125 C 16.871094 48.910156 16.957031 33.488281 17.011719 18.070312 C 17.015625 17.324219 17.664062 16.722656 18.371094 16.722656 C 20.53125 16.722656 22.691406 16.71875 24.851562 16.71875 C 25.070312 18.085938 26.257812 19.132812 27.691406 19.132812 C 32.222656 19.132812 40.96875 19.132812 45.5 19.132812 C 46.933594 19.132812 48.125 18.082031 48.339844 16.707031 C 50.503906 16.707031 52.667969 16.714844 54.832031 16.722656 C 55.5625 16.726562 56.167969 17.359375 56.179688 18.0625 C 56.339844 33.480469 56.214844 48.902344 56.179688 64.320312 Z M 56.179688 64.320312 "/></g><g clip-rule="nonzero" clip-path="url(#577a211af1)"><path style=" stroke:none;fill-rule:evenodd;fill:#2baab7;fill-opacity:1;" d="M 36.59375 6.945312 C 39.164062 6.945312 41.25 9.03125 41.25 11.601562 C 41.25 14.171875 39.164062 16.257812 36.59375 16.257812 C 34.027344 16.257812 31.941406 14.171875 31.941406 11.601562 C 31.941406 9.03125 34.027344 6.945312 36.59375 6.945312 Z M 36.59375 9.1875 C 37.929688 9.1875 39.011719 10.269531 39.011719 11.601562 C 39.011719 12.9375 37.929688 14.019531 36.59375 14.019531 C 35.261719 14.019531 34.179688 12.9375 34.179688 11.601562 C 34.179688 10.269531 35.261719 9.1875 36.59375 9.1875 Z M 36.59375 9.1875 "/></g><g style="fill:#2baab7;fill-opacity:1;"><g transform="translate(27.449997, 13.02692)"><path style="stroke:none" d="M 0.234375 -0.296875 C 0.234375 -0.410156 0.265625 -0.492188 0.328125 -0.546875 C 0.390625 -0.609375 0.476562 -0.640625 0.59375 -0.640625 C 0.707031 -0.640625 0.796875 -0.609375 0.859375 -0.546875 C 0.921875 -0.492188 0.953125 -0.410156 0.953125 -0.296875 C 0.953125 -0.179688 0.921875 -0.09375 0.859375 -0.03125 C 0.796875 0.03125 0.707031 0.0625 0.59375 0.0625 C 0.476562 0.0625 0.390625 0.03125 0.328125 -0.03125 C 0.265625 -0.09375 0.234375 -0.179688 0.234375 -0.296875 Z M 0.234375 -0.296875 "/></g></g></g></svg>