<svg xmlns="http://www.w3.org/2000/svg" xmlns:xlink="http://www.w3.org/1999/xlink" width="100" zoomAndPan="magnify" viewBox="0 0 75 74.999997" height="100" preserveAspectRatio="xMidYMid meet" version="1.2"><defs><clipPath id="084d100fd3"><path d="M 7.5 4.613281 L 65.855469 4.613281 L 65.855469 72.109375 L 7.5 72.109375 Z M 7.5 4.613281 "/></clipPath><clipPath id="2a8e04ac34"><path d="M 11.25 4.613281 L 61.945312 4.613281 C 64.015625 4.613281 65.695312 6.292969 65.695312 8.363281 L 65.695312 68.359375 C 65.695312 70.429688 64.015625 72.109375 61.945312 72.109375 L 11.25 72.109375 C 9.179688 72.109375 7.5 70.429688 7.5 68.359375 L 7.5 8.363281 C 7.5 6.292969 9.179688 4.613281 11.25 4.613281 Z M 11.25 4.613281 "/></clipPath><clipPath id="4c117a37df"><path d="M 15.070312 9.019531 L 57.820312 9.019531 L 57.820312 67.519531 L 15.070312 67.519531 Z M 15.070312 9.019531 "/></clipPath></defs><g id="0a6d5d957f"><g clip-rule="nonzero" clip-path="url(#084d100fd3)"><g clip-rule="nonzero" clip-path="url(#2a8e04ac34)"><path style="fill:none;stroke-width:2;stroke-linecap:butt;stroke-linejoin:miter;stroke:#2baab7;stroke-opacity:1;stroke-miterlimit:4;" d="M 4.999999 -0.0024637 L 72.593755 -0.0024637 C 75.354172 -0.0024637 77.593755 2.23712 77.593755 4.997537 L 77.593755 84.992335 C 77.593755 87.752752 75.354172 89.992335 72.593755 89.992335 L 4.999999 89.992335 C 2.239582 89.992335 -0.00000118333 87.752752 -0.00000118333 84.992335 L -0.00000118333 4.997537 C -0.00000118333 2.23712 2.239582 -0.0024637 4.999999 -0.0024637 Z M 4.999999 -0.0024637 " transform="matrix(0.75,0,0,0.75,7.500001,4.615129)"/></g></g><g clip-rule="nonzero" clip-path="url(#4c117a37df)"><path style=" stroke:none;fill-rule:nonzero;fill:#2baab7;fill-opacity:1;" d="M 57.171875 14.226562 L 52.589844 14.226562 L 52.589844 9.652344 C 52.589844 9.316406 52.316406 9.046875 51.980469 9.046875 L 15.652344 9.046875 C 15.316406 9.046875 15.046875 9.316406 15.046875 9.652344 L 15.046875 61.464844 C 15.046875 61.800781 15.316406 62.070312 15.652344 62.070312 L 20.234375 62.070312 L 20.234375 66.644531 C 20.234375 66.980469 20.507812 67.253906 20.84375 67.253906 L 57.171875 67.253906 C 57.507812 67.253906 57.777344 66.980469 57.777344 66.644531 L 57.777344 14.835938 C 57.777344 14.5 57.507812 14.226562 57.171875 14.226562 Z M 16.261719 60.859375 L 16.261719 10.261719 L 51.375 10.261719 L 51.375 14.226562 L 20.84375 14.226562 C 20.507812 14.226562 20.234375 14.5 20.234375 14.835938 L 20.234375 60.859375 Z M 56.5625 66.039062 L 21.449219 66.039062 L 21.449219 15.441406 L 56.5625 15.441406 Z M 56.5625 66.039062 "/></g><path style=" stroke:none;fill-rule:nonzero;fill:#2baab7;fill-opacity:1;" d="M 46.792969 41.429688 C 46.457031 41.429688 46.183594 41.699219 46.183594 42.035156 L 46.183594 44.019531 L 41.601562 44.019531 C 41.265625 44.019531 40.996094 44.289062 40.996094 44.625 L 40.996094 46.609375 L 36.414062 46.609375 C 36.078125 46.609375 35.804688 46.878906 35.804688 47.214844 L 35.804688 49.199219 L 31.222656 49.199219 C 30.886719 49.199219 30.613281 49.46875 30.613281 49.804688 L 30.613281 51.789062 L 26.03125 51.789062 C 25.695312 51.789062 25.425781 52.058594 25.425781 52.394531 L 25.425781 58.871094 C 25.425781 59.207031 25.695312 59.480469 26.03125 59.480469 L 51.980469 59.480469 C 52.316406 59.480469 52.585938 59.207031 52.585938 58.871094 L 52.585938 42.03125 C 52.585938 41.699219 52.316406 41.425781 51.980469 41.425781 L 46.792969 41.425781 Z M 26.640625 53.003906 L 30.613281 53.003906 L 30.613281 58.269531 L 26.640625 58.269531 Z M 31.832031 52.398438 L 31.832031 50.414062 L 35.804688 50.414062 L 35.804688 58.269531 L 31.832031 58.269531 Z M 37.019531 49.808594 L 37.019531 47.824219 L 40.996094 47.824219 L 40.996094 58.265625 L 37.019531 58.265625 Z M 42.210938 47.21875 L 42.210938 45.234375 L 46.183594 45.234375 L 46.183594 58.269531 L 42.210938 58.269531 Z M 51.375 58.265625 L 47.398438 58.265625 L 47.398438 42.644531 L 51.375 42.644531 Z M 51.375 58.265625 "/><path style=" stroke:none;fill-rule:nonzero;fill:#2baab7;fill-opacity:1;" d="M 37.203125 43.667969 C 37.304688 43.820312 37.46875 43.917969 37.648438 43.933594 C 37.832031 43.953125 38.011719 43.890625 38.140625 43.761719 L 46.183594 35.726562 L 46.183594 37.925781 C 46.183594 38.261719 46.457031 38.535156 46.792969 38.535156 C 47.128906 38.535156 47.398438 38.261719 47.398438 37.925781 L 47.398438 34.261719 C 47.398438 34.246094 47.394531 34.230469 47.394531 34.214844 C 47.390625 34.191406 47.390625 34.167969 47.386719 34.144531 C 47.382812 34.121094 47.371094 34.097656 47.367188 34.074219 C 47.359375 34.0625 47.359375 34.046875 47.351562 34.03125 C 47.34375 34.003906 47.328125 33.980469 47.3125 33.957031 C 47.308594 33.949219 47.304688 33.9375 47.296875 33.925781 C 47.253906 33.859375 47.195312 33.800781 47.128906 33.757812 C 47.121094 33.753906 47.113281 33.75 47.105469 33.746094 C 47.078125 33.726562 47.050781 33.714844 47.023438 33.699219 C 47.011719 33.695312 47 33.695312 46.988281 33.691406 C 46.960938 33.683594 46.9375 33.671875 46.910156 33.667969 C 46.890625 33.664062 46.875 33.664062 46.859375 33.660156 C 46.835938 33.660156 46.8125 33.65625 46.789062 33.65625 L 43.121094 33.65625 C 42.785156 33.65625 42.515625 33.925781 42.515625 34.261719 C 42.515625 34.597656 42.785156 34.871094 43.121094 34.871094 L 45.324219 34.871094 L 37.800781 42.378906 L 35.617188 39.105469 C 35.519531 38.960938 35.367188 38.863281 35.195312 38.839844 C 35.019531 38.820312 34.84375 38.871094 34.714844 38.984375 L 24.335938 48.054688 C 24.082031 48.273438 24.054688 48.660156 24.277344 48.910156 C 24.398438 49.046875 24.566406 49.117188 24.734375 49.117188 C 24.875 49.117188 25.019531 49.070312 25.132812 48.96875 L 34.992188 40.355469 Z M 37.203125 43.667969 "/><path style=" stroke:none;fill-rule:nonzero;fill:#2baab7;fill-opacity:1;" d="M 24.734375 21.917969 L 27.332031 21.917969 C 27.664062 21.917969 27.9375 21.648438 27.9375 21.3125 L 27.9375 18.722656 C 27.9375 18.386719 27.664062 18.113281 27.332031 18.113281 L 24.734375 18.113281 C 24.398438 18.113281 24.128906 18.386719 24.128906 18.722656 L 24.128906 21.3125 C 24.128906 21.644531 24.402344 21.917969 24.734375 21.917969 Z M 25.34375 19.328125 L 26.722656 19.328125 L 26.722656 20.703125 L 25.34375 20.703125 Z M 25.34375 19.328125 "/><path style=" stroke:none;fill-rule:nonzero;fill:#2baab7;fill-opacity:1;" d="M 29.925781 21.917969 L 39.007812 21.917969 C 39.34375 21.917969 39.613281 21.648438 39.613281 21.3125 L 39.613281 18.722656 C 39.613281 18.386719 39.34375 18.113281 39.007812 18.113281 L 29.925781 18.113281 C 29.589844 18.113281 29.316406 18.386719 29.316406 18.722656 L 29.316406 21.3125 C 29.316406 21.644531 29.589844 21.917969 29.925781 21.917969 Z M 30.53125 19.328125 L 38.398438 19.328125 L 38.398438 20.703125 L 30.53125 20.703125 Z M 30.53125 19.328125 "/><path style=" stroke:none;fill-rule:nonzero;fill:#2baab7;fill-opacity:1;" d="M 24.734375 27.101562 L 27.332031 27.101562 C 27.664062 27.101562 27.9375 26.828125 27.9375 26.492188 L 27.9375 23.902344 C 27.9375 23.566406 27.664062 23.292969 27.332031 23.292969 L 24.734375 23.292969 C 24.398438 23.292969 24.128906 23.566406 24.128906 23.902344 L 24.128906 26.492188 C 24.128906 26.828125 24.402344 27.101562 24.734375 27.101562 Z M 25.34375 24.507812 L 26.722656 24.507812 L 26.722656 25.882812 L 25.34375 25.882812 Z M 25.34375 24.507812 "/><path style=" stroke:none;fill-rule:nonzero;fill:#2baab7;fill-opacity:1;" d="M 29.925781 27.101562 L 39.007812 27.101562 C 39.34375 27.101562 39.613281 26.828125 39.613281 26.492188 L 39.613281 23.902344 C 39.613281 23.566406 39.34375 23.292969 39.007812 23.292969 L 29.925781 23.292969 C 29.589844 23.292969 29.316406 23.566406 29.316406 23.902344 L 29.316406 26.492188 C 29.316406 26.828125 29.589844 27.101562 29.925781 27.101562 Z M 30.53125 24.507812 L 38.398438 24.507812 L 38.398438 25.882812 L 30.53125 25.882812 Z M 30.53125 24.507812 "/><path style=" stroke:none;fill-rule:nonzero;fill:#2baab7;fill-opacity:1;" d="M 24.734375 32.28125 L 27.332031 32.28125 C 27.664062 32.28125 27.9375 32.007812 27.9375 31.671875 L 27.9375 29.082031 C 27.9375 28.746094 27.664062 28.476562 27.332031 28.476562 L 24.734375 28.476562 C 24.398438 28.476562 24.128906 28.746094 24.128906 29.082031 L 24.128906 31.671875 C 24.128906 32.007812 24.402344 32.28125 24.734375 32.28125 Z M 25.34375 29.691406 L 26.722656 29.691406 L 26.722656 31.066406 L 25.34375 31.066406 Z M 25.34375 29.691406 "/><path style=" stroke:none;fill-rule:nonzero;fill:#2baab7;fill-opacity:1;" d="M 29.925781 32.28125 L 39.007812 32.28125 C 39.34375 32.28125 39.613281 32.007812 39.613281 31.671875 L 39.613281 29.082031 C 39.613281 28.746094 39.34375 28.476562 39.007812 28.476562 L 29.925781 28.476562 C 29.589844 28.476562 29.316406 28.746094 29.316406 29.082031 L 29.316406 31.671875 C 29.316406 32.007812 29.589844 32.28125 29.925781 32.28125 Z M 30.53125 29.691406 L 38.398438 29.691406 L 38.398438 31.066406 L 30.53125 31.066406 Z M 30.53125 29.691406 "/><path style=" stroke:none;fill-rule:nonzero;fill:#2baab7;fill-opacity:1;" d="M 24.734375 37.460938 L 27.332031 37.460938 C 27.664062 37.460938 27.9375 37.191406 27.9375 36.855469 L 27.9375 34.265625 C 27.9375 33.929688 27.664062 33.65625 27.332031 33.65625 L 24.734375 33.65625 C 24.398438 33.65625 24.128906 33.929688 24.128906 34.265625 L 24.128906 36.855469 C 24.128906 37.191406 24.402344 37.460938 24.734375 37.460938 Z M 25.34375 34.871094 L 26.722656 34.871094 L 26.722656 36.246094 L 25.34375 36.246094 Z M 25.34375 34.871094 "/><path style=" stroke:none;fill-rule:nonzero;fill:#2baab7;fill-opacity:1;" d="M 29.925781 37.460938 L 39.007812 37.460938 C 39.34375 37.460938 39.613281 37.191406 39.613281 36.855469 L 39.613281 34.265625 C 39.613281 33.929688 39.34375 33.65625 39.007812 33.65625 L 29.925781 33.65625 C 29.589844 33.65625 29.316406 33.929688 29.316406 34.265625 L 29.316406 36.855469 C 29.316406 37.191406 29.589844 37.460938 29.925781 37.460938 Z M 30.53125 34.871094 L 38.398438 34.871094 L 38.398438 36.246094 L 30.53125 36.246094 Z M 30.53125 34.871094 "/><g style="fill:#2baab7;fill-opacity:1;"><g transform="translate(36.299999, 14.826921)"><path style="stroke:none" d="M 0.234375 -0.296875 C 0.234375 -0.410156 0.265625 -0.492188 0.328125 -0.546875 C 0.390625 -0.609375 0.476562 -0.640625 0.59375 -0.640625 C 0.707031 -0.640625 0.796875 -0.609375 0.859375 -0.546875 C 0.921875 -0.492188 0.953125 -0.410156 0.953125 -0.296875 C 0.953125 -0.179688 0.921875 -0.09375 0.859375 -0.03125 C 0.796875 0.03125 0.707031 0.0625 0.59375 0.0625 C 0.476562 0.0625 0.390625 0.03125 0.328125 -0.03125 C 0.265625 -0.09375 0.234375 -0.179688 0.234375 -0.296875 Z M 0.234375 -0.296875 "/></g></g></g></svg>