<svg xmlns="http://www.w3.org/2000/svg" xmlns:xlink="http://www.w3.org/1999/xlink" width="40" zoomAndPan="magnify" viewBox="0 0 30 30.000001" height="40" preserveAspectRatio="xMidYMid meet" version="1.2"><defs><clipPath id="502705c16f"><path d="M 4.984375 4.5 L 25 4.5 L 25 24.824219 L 4.984375 24.824219 Z M 4.984375 4.5 "/></clipPath></defs><g id="3aad4397f5"><g clip-rule="nonzero" clip-path="url(#502705c16f)"><path style=" stroke:none;fill-rule:nonzero;fill:#2baab7;fill-opacity:1;" d="M 14.992188 4.5 C 9.464844 4.5 4.984375 8.980469 4.984375 14.507812 C 4.984375 20.035156 9.464844 24.515625 14.992188 24.515625 C 20.519531 24.515625 25 20.035156 25 14.507812 C 25 8.980469 20.519531 4.5 14.992188 4.5 Z M 14.992188 23.078125 C 10.257812 23.078125 6.421875 19.242188 6.421875 14.507812 C 6.421875 9.773438 10.257812 5.9375 14.992188 5.9375 C 19.726562 5.9375 23.5625 9.773438 23.5625 14.507812 C 23.5625 19.242188 19.726562 23.078125 14.992188 23.078125 Z M 14.992188 23.078125 "/></g><path style=" stroke:none;fill-rule:nonzero;fill:#2baab7;fill-opacity:1;" d="M 9.316406 14.144531 L 10.636719 12.824219 L 15.617188 17.800781 L 14.296875 19.121094 Z M 9.316406 14.144531 "/><path style=" stroke:none;fill-rule:nonzero;fill:#2baab7;fill-opacity:1;" d="M 12.976562 17.800781 L 20.417969 10.359375 L 21.742188 11.679688 L 14.296875 19.125 Z M 12.976562 17.800781 "/><g style="fill:#2baab7;fill-opacity:1;"><g transform="translate(14.419355, 5.203476)"><path style="stroke:none" d="M 0.234375 -0.28125 C 0.234375 -0.394531 0.257812 -0.476562 0.3125 -0.53125 C 0.375 -0.59375 0.460938 -0.625 0.578125 -0.625 C 0.691406 -0.625 0.773438 -0.59375 0.828125 -0.53125 C 0.890625 -0.476562 0.921875 -0.394531 0.921875 -0.28125 C 0.921875 -0.175781 0.890625 -0.09375 0.828125 -0.03125 C 0.773438 0.0195312 0.691406 0.046875 0.578125 0.046875 C 0.472656 0.046875 0.390625 0.0195312 0.328125 -0.03125 C 0.265625 -0.09375 0.234375 -0.175781 0.234375 -0.28125 Z M 0.234375 -0.28125 "/></g></g></g></svg>